<svg width="36" height="27" viewBox="0 0 36 27" fill="none" xmlns="http://www.w3.org/2000/svg">
<path d="M29.7031 2.85156C29.7031 2.85156 29.7031 2.85156 29.6445 2.85156C27.4766 1.85547 25.0742 1.09375 22.6719 0.683594C22.6133 0.683594 22.6133 0.625 22.6133 0.625L22.5547 0.683594C22.2031 1.26953 21.9102 1.91406 21.6758 2.5C20.3867 2.32422 19.0391 2.20703 17.6914 2.20703C16.3438 2.20703 15.0547 2.32422 13.7656 2.5C13.5312 1.91406 13.2383 1.26953 12.8867 0.683594H12.8281C12.7695 0.683594 12.7695 0.683594 12.7695 0.683594C10.3672 1.09375 7.96484 1.85547 5.79688 2.85156C5.73828 2.85156 5.73828 2.85156 5.73828 2.85156C1.28516 9.53125 0.0546875 16.0352 0.640625 22.4805C0.640625 22.4805 0.640625 22.5391 0.699219 22.5391C3.21875 24.4727 6.14844 25.9375 9.3125 26.875C9.37109 26.875 9.37109 26.875 9.42969 26.875C10.0742 25.9375 10.6602 25 11.1875 24.0039V23.9453C11.1875 23.8867 11.1289 23.8867 11.1289 23.8281C10.1914 23.4766 9.25391 23.0664 8.43359 22.5391C8.375 22.5391 8.375 22.5391 8.375 22.4805C8.375 22.4219 8.375 22.4219 8.43359 22.3633C8.60938 22.2461 8.78516 22.1289 8.96094 21.9531C8.96094 21.9531 8.96094 21.9531 9.01953 21.9531C9.01953 21.9531 9.01953 21.9531 9.07812 21.9531C14.7031 24.5312 20.7969 24.5312 26.3633 21.9531H26.4219H26.4805C26.6562 22.1289 26.832 22.2461 27.0078 22.3633C27.0664 22.4219 27.0664 22.4219 27.0664 22.4805C27.0664 22.5391 27.0664 22.5391 27.0078 22.5391C26.1289 23.0664 25.25 23.4766 24.3125 23.8281C24.2539 23.8867 24.2539 23.8867 24.2539 23.9453V24.0039C24.7812 25 25.3672 25.9375 26.0117 26.875C26.0117 26.875 26.0703 26.875 26.1289 26.875C29.2344 25.9375 32.1641 24.4727 34.7422 22.5391C34.8008 22.5391 34.8008 22.4805 34.8008 22.4805C35.5039 15.0391 33.5703 8.59375 29.7031 2.85156ZM12.0078 18.5547C10.3086 18.5547 8.90234 16.9727 8.90234 15.0977C8.90234 13.1641 10.3086 11.6406 12.0078 11.6406C13.7656 11.6406 15.1133 13.1641 15.1133 15.0977C15.1133 16.9727 13.707 18.5547 12.0078 18.5547ZM23.4336 18.5547C21.7344 18.5547 20.3867 16.9727 20.3867 15.0977C20.3867 13.1641 21.7344 11.6406 23.4336 11.6406C25.1914 11.6406 26.5977 13.1641 26.5391 15.0977C26.5391 16.9727 25.1914 18.5547 23.4336 18.5547Z" fill="#F0F0F0"/>
</svg>
