<svg width="119" height="12" viewBox="0 0 119 12" fill="none" xmlns="http://www.w3.org/2000/svg">
<path d="M2.32958 2.46797V7.11261H4.65915C4.97842 7.11261 5.27875 7.05327 5.56014 6.93459C5.84153 6.81052 6.08775 6.64329 6.29879 6.43291C6.50983 6.22252 6.67487 5.97707 6.79392 5.69656C6.91838 5.41065 6.98061 5.10856 6.98061 4.79029C6.98061 4.47202 6.91838 4.17262 6.79392 3.89211C6.67487 3.6062 6.50983 3.35806 6.29879 3.14767C6.08775 2.93729 5.84153 2.77276 5.56014 2.65408C5.27875 2.53001 4.97842 2.46797 4.65915 2.46797H2.32958ZM2.32958 11.7492H0V0.145651H4.65915C5.08665 0.145651 5.49791 0.202293 5.89294 0.315577C6.28796 0.423466 6.65594 0.579906 6.99685 0.784895C7.34317 0.984491 7.65703 1.22724 7.93842 1.51315C8.22522 1.79366 8.46873 2.10654 8.66895 2.45179C8.87458 2.79703 9.03151 3.16655 9.13974 3.56035C9.25337 3.95415 9.31019 4.36413 9.31019 4.79029C9.31019 5.42684 9.18844 6.02832 8.94493 6.59474C8.70142 7.15577 8.36862 7.64666 7.94654 8.06743C7.52445 8.4882 7.02932 8.81996 6.46113 9.06271C5.89835 9.30546 5.29769 9.42684 4.65915 9.42684H2.32958V11.7492Z" fill="white"/>
<path d="M22.8344 5.99595C22.8344 6.54619 22.7614 7.07755 22.6152 7.59002C22.4746 8.0971 22.2743 8.57451 22.0146 9.02225C21.7548 9.4646 21.441 9.86918 21.073 10.236C20.705 10.6028 20.2992 10.9184 19.8555 11.1827C19.4117 11.4417 18.9328 11.6413 18.4188 11.7815C17.9047 11.9272 17.3717 12 16.8197 12C16.2678 12 15.7347 11.9272 15.2207 11.7815C14.712 11.6413 14.2331 11.4417 13.784 11.1827C13.3402 10.9184 12.9344 10.6028 12.5664 10.236C12.1984 9.86918 11.8819 9.4646 11.6167 9.02225C11.357 8.57451 11.154 8.0971 11.0079 7.59002C10.8672 7.07755 10.7969 6.54619 10.7969 5.99595C10.7969 5.44572 10.8672 4.91436 11.0079 4.40189C11.154 3.88941 11.357 3.412 11.6167 2.96966C11.8819 2.52731 12.1984 2.12272 12.5664 1.7559C12.9344 1.38908 13.3402 1.0762 13.784 0.817262C14.2331 0.558328 14.712 0.358732 15.2207 0.218476C15.7347 0.0728253 16.2678 0 16.8197 0C17.3717 0 17.9047 0.0728253 18.4188 0.218476C18.9328 0.358732 19.4117 0.558328 19.8555 0.817262C20.2992 1.0762 20.705 1.38908 21.073 1.7559C21.441 2.12272 21.7548 2.52731 22.0146 2.96966C22.2743 3.412 22.4746 3.88941 22.6152 4.40189C22.7614 4.91436 22.8344 5.44572 22.8344 5.99595ZM20.5211 5.99595C20.5211 5.48887 20.4237 5.01146 20.2288 4.56372C20.034 4.11059 19.7689 3.71949 19.4334 3.39042C19.1033 3.05597 18.711 2.79164 18.2564 2.59744C17.8073 2.40324 17.3284 2.30614 16.8197 2.30614C16.3056 2.30614 15.824 2.40324 15.3749 2.59744C14.9257 2.79164 14.5334 3.05597 14.1979 3.39042C13.8624 3.71949 13.5973 4.11059 13.4025 4.56372C13.2076 5.01146 13.1102 5.48887 13.1102 5.99595C13.1102 6.50303 13.2076 6.98044 13.4025 7.42819C13.5973 7.87053 13.8624 8.25893 14.1979 8.59339C14.5334 8.92785 14.9257 9.19218 15.3749 9.38638C15.824 9.58058 16.3056 9.67768 16.8197 9.67768C17.3284 9.67768 17.8073 9.58058 18.2564 9.38638C18.711 9.19218 19.1033 8.92785 19.4334 8.59339C19.7689 8.25893 20.034 7.87053 20.2288 7.42819C20.4237 6.98044 20.5211 6.50303 20.5211 5.99595Z" fill="white"/>
<path d="M27.4462 2.46797V7.11261H29.7757C30.095 7.11261 30.3953 7.05327 30.6767 6.93459C30.9581 6.81052 31.2043 6.64329 31.4154 6.43291C31.6264 6.22252 31.7915 5.97707 31.9105 5.69656C32.035 5.41065 32.0972 5.10856 32.0972 4.79029C32.0972 4.47202 32.035 4.17262 31.9105 3.89211C31.7915 3.6062 31.6264 3.35806 31.4154 3.14767C31.2043 2.93729 30.9581 2.77276 30.6767 2.65408C30.3953 2.53001 30.095 2.46797 29.7757 2.46797H27.4462ZM27.4462 11.7492H25.1166V0.145651H29.7757C30.2032 0.145651 30.6145 0.202293 31.0095 0.315577C31.4045 0.423466 31.7725 0.579906 32.1134 0.784895C32.4598 0.984491 32.7736 1.22724 33.055 1.51315C33.3418 1.79366 33.5853 2.10654 33.7855 2.45179C33.9912 2.79703 34.1481 3.16655 34.2563 3.56035C34.37 3.95415 34.4268 4.36413 34.4268 4.79029C34.4268 5.18948 34.3754 5.57788 34.2725 5.9555C34.1751 6.33311 34.0317 6.69184 33.8424 7.03169C33.6584 7.37154 33.4311 7.68442 33.1605 7.97033C32.89 8.25624 32.5869 8.50438 32.2514 8.71477L33.542 11.7492H31.0663L30.0517 9.41065L27.4462 9.42684V11.7492Z" fill="white"/>
<path d="M41.3843 11.7492H39.0629V2.46797H35.5644V0.145651H44.8746V2.46797H41.3843V11.7492Z" fill="white"/>
<path d="M53.3501 7.11261V4.79029C53.3501 4.47202 53.2878 4.17262 53.1634 3.89211C53.0443 3.6062 52.8793 3.35806 52.6683 3.14767C52.4572 2.93729 52.2083 2.77276 51.9215 2.65408C51.6401 2.53001 51.3398 2.46797 51.0205 2.46797C50.7012 2.46797 50.3982 2.53001 50.1114 2.65408C49.83 2.77276 49.5838 2.93729 49.3728 3.14767C49.1617 3.35806 48.994 3.6062 48.8695 3.89211C48.7505 4.17262 48.6909 4.47202 48.6909 4.79029V7.11261H53.3501ZM55.6797 11.7492H53.3501V9.42684H48.6909V11.7492H46.3695V4.79029C46.3695 4.14835 46.4912 3.54686 46.7347 2.98584C46.9782 2.41942 47.3083 1.92583 47.725 1.50506C48.1471 1.08429 48.6395 0.752529 49.2023 0.509777C49.7705 0.267026 50.3766 0.145651 51.0205 0.145651C51.6645 0.145651 52.2678 0.267026 52.8306 0.509777C53.3988 0.752529 53.8939 1.08429 54.316 1.50506C54.7381 1.92583 55.0709 2.41942 55.3144 2.98584C55.5579 3.54686 55.6797 4.14835 55.6797 4.79029V11.7492Z" fill="white"/>
<path d="M66.5983 11.7492H58.4488V0.145651H60.7784V9.42684H66.5983V11.7492Z" fill="white"/>
<path d="M76.2913 0.145651L72.4682 11.7492H70.1386L66.3317 0.145651H68.9779L71.2994 7.88941L73.6289 0.145651H76.2913Z" fill="white"/>
<path d="M86.1385 11.7492H78.1595V0.145651H86.1385V2.46797H80.4891V4.79029H84.3122V7.11261H80.4891V9.42684H86.1385V11.7492Z" fill="white"/>
<path d="M90.8477 2.46797V7.11261H93.1772C93.4965 7.11261 93.7968 7.05327 94.0782 6.93459C94.3596 6.81052 94.6058 6.64329 94.8169 6.43291C95.0279 6.22252 95.193 5.97707 95.312 5.69656C95.4365 5.41065 95.4987 5.10856 95.4987 4.79029C95.4987 4.47202 95.4365 4.17262 95.312 3.89211C95.193 3.6062 95.0279 3.35806 94.8169 3.14767C94.6058 2.93729 94.3596 2.77276 94.0782 2.65408C93.7968 2.53001 93.4965 2.46797 93.1772 2.46797H90.8477ZM90.8477 11.7492H88.5181V0.145651H93.1772C93.6047 0.145651 94.016 0.202293 94.411 0.315577C94.8061 0.423466 95.174 0.579906 95.5149 0.784895C95.8613 0.984491 96.1751 1.22724 96.4565 1.51315C96.7433 1.79366 96.9868 2.10654 97.187 2.45179C97.3927 2.79703 97.5496 3.16655 97.6578 3.56035C97.7715 3.95415 97.8283 4.36413 97.8283 4.79029C97.8283 5.18948 97.7769 5.57788 97.6741 5.9555C97.5767 6.33311 97.4333 6.69184 97.2439 7.03169C97.0599 7.37154 96.8326 7.68442 96.562 7.97033C96.2915 8.25624 95.9884 8.50438 95.6529 8.71477L96.9435 11.7492H94.4678L93.4532 9.41065L90.8477 9.42684V11.7492Z" fill="white"/>
<path d="M99.4286 3.62508C99.4286 3.14498 99.5206 2.69454 99.7046 2.27377C99.8886 1.853 100.138 1.48618 100.451 1.1733C100.771 0.855024 101.141 0.604181 101.563 0.420769C101.985 0.237357 102.437 0.145651 102.919 0.145651H108.26V2.46797H102.919C102.757 2.46797 102.605 2.49764 102.464 2.55698C102.324 2.61632 102.199 2.69993 102.091 2.80782C101.988 2.91032 101.907 3.03169 101.847 3.17195C101.788 3.3122 101.758 3.46325 101.758 3.62508C101.758 3.78692 101.788 3.94066 101.847 4.08631C101.907 4.22657 101.988 4.35064 102.091 4.45853C102.199 4.56102 102.324 4.64194 102.464 4.70128C102.605 4.76062 102.757 4.79029 102.919 4.79029H105.249C105.73 4.79029 106.182 4.882 106.604 5.06541C107.032 5.24343 107.402 5.49157 107.716 5.80984C108.035 6.12272 108.284 6.49225 108.463 6.91841C108.647 7.33918 108.739 7.78962 108.739 8.26972C108.739 8.74983 108.647 9.20027 108.463 9.62104C108.284 10.0418 108.035 10.4113 107.716 10.7296C107.402 11.0425 107.032 11.2906 106.604 11.474C106.182 11.6575 105.73 11.7492 105.249 11.7492H100.078V9.42684H105.249C105.411 9.42684 105.562 9.39717 105.703 9.33783C105.844 9.27849 105.966 9.19757 106.068 9.09508C106.177 8.98719 106.26 8.86312 106.32 8.72286C106.379 8.5826 106.409 8.43156 106.409 8.26972C106.409 8.10789 106.379 7.95684 106.32 7.81659C106.26 7.67633 106.177 7.55496 106.068 7.45246C105.966 7.34457 105.844 7.26096 105.703 7.20162C105.562 7.14228 105.411 7.11261 105.249 7.11261H102.919C102.437 7.11261 101.985 7.0209 101.563 6.83749C101.141 6.65408 100.771 6.40593 100.451 6.09305C100.138 5.77478 99.8886 5.40526 99.7046 4.98449C99.5206 4.55833 99.4286 4.10519 99.4286 3.62508Z" fill="white"/>
<path d="M119 11.7492H111.021V0.145651H119V2.46797H113.351V4.79029H117.174V7.11261H113.351V9.42684H119V11.7492Z" fill="white"/>
</svg>
