<svg width="176" height="19" viewBox="0 0 176 19" fill="none" xmlns="http://www.w3.org/2000/svg">
<path d="M3.436 4.62025V11.4922H6.872C7.3429 11.4922 7.78587 11.4045 8.20091 11.2289C8.61594 11.0453 8.97909 10.7979 9.29037 10.4866C9.60165 10.1753 9.84508 9.81216 10.0207 9.39713C10.2042 8.97411 10.296 8.52715 10.296 8.05625C10.296 7.58535 10.2042 7.14238 10.0207 6.72734C9.84508 6.30433 9.60165 5.93718 9.29037 5.62591C8.97909 5.31463 8.61594 5.0712 8.20091 4.89561C7.78587 4.71203 7.3429 4.62025 6.872 4.62025H3.436ZM3.436 18.3523H0V1.18425H6.872C7.50253 1.18425 8.10912 1.26805 8.69176 1.43566C9.27441 1.59529 9.81714 1.82675 10.32 2.13005C10.8308 2.42536 11.2937 2.78452 11.7087 3.20754C12.1318 3.62257 12.4909 4.08549 12.7862 4.5963C13.0895 5.10712 13.321 5.65384 13.4806 6.23649C13.6482 6.81913 13.732 7.42572 13.732 8.05625C13.732 8.99806 13.5524 9.88798 13.1933 10.726C12.8341 11.5561 12.3433 12.2824 11.7207 12.905C11.0982 13.5275 10.3679 14.0184 9.52981 14.3775C8.69975 14.7367 7.81381 14.9163 6.872 14.9163H3.436V18.3523Z" fill="white"/>
<path d="M33.6795 9.8401C33.6795 10.6542 33.5718 11.4404 33.3563 12.1986C33.1487 12.9489 32.8534 13.6552 32.4703 14.3177C32.0872 14.9721 31.6243 15.5708 31.0816 16.1135C30.5388 16.6562 29.9402 17.1231 29.2857 17.5142C28.6313 17.8973 27.9249 18.1926 27.1667 18.4002C26.4084 18.6157 25.6223 18.7234 24.8082 18.7234C23.9941 18.7234 23.2079 18.6157 22.4497 18.4002C21.6994 18.1926 20.993 17.8973 20.3306 17.5142C19.6761 17.1231 19.0775 16.6562 18.5348 16.1135C17.992 15.5708 17.5251 14.9721 17.134 14.3177C16.7509 13.6552 16.4516 12.9489 16.2361 12.1986C16.0286 11.4404 15.9248 10.6542 15.9248 9.8401C15.9248 9.02599 16.0286 8.23982 16.2361 7.48159C16.4516 6.72335 16.7509 6.017 17.134 5.36252C17.5251 4.70804 17.992 4.10944 18.5348 3.5667C19.0775 3.02397 19.6761 2.56104 20.3306 2.17793C20.993 1.79483 21.6994 1.49951 22.4497 1.292C23.2079 1.0765 23.9941 0.96875 24.8082 0.96875C25.6223 0.96875 26.4084 1.0765 27.1667 1.292C27.9249 1.49951 28.6313 1.79483 29.2857 2.17793C29.9402 2.56104 30.5388 3.02397 31.0816 3.5667C31.6243 4.10944 32.0872 4.70804 32.4703 5.36252C32.8534 6.017 33.1487 6.72335 33.3563 7.48159C33.5718 8.23982 33.6795 9.02599 33.6795 9.8401ZM30.2675 9.8401C30.2675 9.08984 30.1238 8.38349 29.8365 7.72103C29.5491 7.05059 29.158 6.47194 28.6632 5.98507C28.1763 5.49022 27.5977 5.09913 26.9272 4.8118C26.2648 4.52447 25.5584 4.38081 24.8082 4.38081C24.0499 4.38081 23.3396 4.52447 22.6771 4.8118C22.0147 5.09913 21.436 5.49022 20.9412 5.98507C20.4463 6.47194 20.0552 7.05059 19.7679 7.72103C19.4806 8.38349 19.3369 9.08984 19.3369 9.8401C19.3369 10.5903 19.4806 11.2967 19.7679 11.9592C20.0552 12.6136 20.4463 13.1883 20.9412 13.6831C21.436 14.178 22.0147 14.5691 22.6771 14.8564C23.3396 15.1437 24.0499 15.2874 24.8082 15.2874C25.5584 15.2874 26.2648 15.1437 26.9272 14.8564C27.5977 14.5691 28.1763 14.178 28.6632 13.6831C29.158 13.1883 29.5491 12.6136 29.8365 11.9592C30.1238 11.2967 30.2675 10.5903 30.2675 9.8401Z" fill="white"/>
<path d="M40.4816 4.62025V11.4922H43.9176C44.3885 11.4922 44.8315 11.4045 45.2465 11.2289C45.6615 11.0453 46.0247 10.7979 46.336 10.4866C46.6472 10.1753 46.8907 9.81216 47.0663 9.39713C47.2498 8.97411 47.3416 8.52715 47.3416 8.05625C47.3416 7.58535 47.2498 7.14238 47.0663 6.72734C46.8907 6.30433 46.6472 5.93718 46.336 5.62591C46.0247 5.31463 45.6615 5.0712 45.2465 4.89561C44.8315 4.71203 44.3885 4.62025 43.9176 4.62025H40.4816ZM40.4816 18.3523H37.0456V1.18425H43.9176C44.5481 1.18425 45.1547 1.26805 45.7374 1.43566C46.32 1.59529 46.8627 1.82675 47.3656 2.13005C47.8764 2.42536 48.3393 2.78452 48.7543 3.20754C49.1773 3.62257 49.5365 4.08549 49.8318 4.5963C50.1351 5.10712 50.3666 5.65384 50.5262 6.23649C50.6938 6.81913 50.7776 7.42572 50.7776 8.05625C50.7776 8.64687 50.7018 9.22154 50.5502 9.78024C50.4065 10.3389 50.195 10.8697 49.9156 11.3725C49.6443 11.8754 49.309 12.3383 48.91 12.7613C48.5109 13.1843 48.0639 13.5515 47.5691 13.8627L49.4727 18.3523H45.8212L44.3246 14.8923L40.4816 14.9163V18.3523Z" fill="white"/>
<path d="M61.0396 18.3523H57.6156V4.62025H52.4556V1.18425H66.1877V4.62025H61.0396V18.3523Z" fill="white"/>
<path d="M78.6885 11.4922V8.05625C78.6885 7.58535 78.5967 7.14238 78.4131 6.72734C78.2375 6.30433 77.9941 5.93718 77.6828 5.62591C77.3715 5.31463 77.0044 5.0712 76.5814 4.89561C76.1663 4.71203 75.7234 4.62025 75.2525 4.62025C74.7816 4.62025 74.3346 4.71203 73.9116 4.89561C73.4966 5.0712 73.1334 5.31463 72.8221 5.62591C72.5109 5.93718 72.2634 6.30433 72.0799 6.72734C71.9043 7.14238 71.8165 7.58535 71.8165 8.05625V11.4922H78.6885ZM82.1245 18.3523H78.6885V14.9163H71.8165V18.3523H68.3924V8.05625C68.3924 7.10646 68.572 6.21653 68.9312 5.38646C69.2904 4.54842 69.7772 3.81812 70.3918 3.19557C71.0143 2.57301 71.7407 2.08216 72.5707 1.72299C73.4088 1.36383 74.3027 1.18425 75.2525 1.18425C76.2023 1.18425 77.0922 1.36383 77.9223 1.72299C78.7603 2.08216 79.4906 2.57301 80.1132 3.19557C80.7357 3.81812 81.2266 4.54842 81.5857 5.38646C81.9449 6.21653 82.1245 7.10646 82.1245 8.05625V18.3523Z" fill="white"/>
<path d="M98.2289 18.3523H86.2089V1.18425H89.6449V14.9163H98.2289V18.3523Z" fill="white"/>
<path d="M112.526 1.18425L106.887 18.3523H103.451L97.8357 1.18425H101.739L105.163 12.6416L108.599 1.18425H112.526Z" fill="white"/>
<path d="M127.05 18.3523H115.281V1.18425H127.05V4.62025H118.717V8.05625H124.356V11.4922H118.717V14.9163H127.05V18.3523Z" fill="white"/>
<path d="M133.995 4.62025V11.4922H137.431C137.902 11.4922 138.345 11.4045 138.76 11.2289C139.175 11.0453 139.538 10.7979 139.85 10.4866C140.161 10.1753 140.404 9.81216 140.58 9.39713C140.764 8.97411 140.855 8.52715 140.855 8.05625C140.855 7.58535 140.764 7.14238 140.58 6.72734C140.404 6.30433 140.161 5.93718 139.85 5.62591C139.538 5.31463 139.175 5.0712 138.76 4.89561C138.345 4.71203 137.902 4.62025 137.431 4.62025H133.995ZM133.995 18.3523H130.559V1.18425H137.431C138.062 1.18425 138.669 1.26805 139.251 1.43566C139.834 1.59529 140.377 1.82675 140.879 2.13005C141.39 2.42536 141.853 2.78452 142.268 3.20754C142.691 3.62257 143.05 4.08549 143.346 4.5963C143.649 5.10712 143.88 5.65384 144.04 6.23649C144.208 6.81913 144.291 7.42572 144.291 8.05625C144.291 8.64687 144.216 9.22154 144.064 9.78024C143.92 10.3389 143.709 10.8697 143.429 11.3725C143.158 11.8754 142.823 12.3383 142.424 12.7613C142.025 13.1843 141.578 13.5515 141.083 13.8627L142.986 18.3523H139.335L137.838 14.8923L133.995 14.9163V18.3523Z" fill="white"/>
<path d="M146.652 6.33226C146.652 5.62192 146.788 4.95547 147.059 4.33292C147.33 3.71037 147.697 3.16763 148.16 2.70471C148.631 2.2338 149.178 1.86267 149.801 1.5913C150.423 1.31993 151.09 1.18425 151.8 1.18425H159.678V4.62025H151.8C151.56 4.62025 151.337 4.66415 151.129 4.75194C150.922 4.83974 150.738 4.96345 150.579 5.12308C150.427 5.27472 150.307 5.45431 150.22 5.66182C150.132 5.86934 150.088 6.09282 150.088 6.33226C150.088 6.57171 150.132 6.79918 150.22 7.01467C150.307 7.22219 150.427 7.40576 150.579 7.56539C150.738 7.71704 150.922 7.83676 151.129 7.92456C151.337 8.01235 151.56 8.05625 151.8 8.05625H155.236C155.946 8.05625 156.613 8.19193 157.235 8.4633C157.866 8.72669 158.412 9.09383 158.875 9.56474C159.346 10.0277 159.713 10.5744 159.977 11.2049C160.248 11.8275 160.384 12.4939 160.384 13.2043C160.384 13.9146 160.248 14.5811 159.977 15.2036C159.713 15.8262 159.346 16.3729 158.875 16.8438C158.412 17.3067 157.866 17.6739 157.235 17.9452C156.613 18.2166 155.946 18.3523 155.236 18.3523H147.61V14.9163H155.236C155.475 14.9163 155.699 14.8724 155.906 14.7846C156.114 14.6968 156.293 14.5771 156.445 14.4254C156.605 14.2658 156.728 14.0822 156.816 13.8747C156.904 13.6672 156.948 13.4437 156.948 13.2043C156.948 12.9648 156.904 12.7413 156.816 12.5338C156.728 12.3263 156.605 12.1467 156.445 11.9951C156.293 11.8354 156.114 11.7117 155.906 11.6239C155.699 11.5361 155.475 11.4922 155.236 11.4922H151.8C151.09 11.4922 150.423 11.3566 149.801 11.0852C149.178 10.8138 148.631 10.4467 148.16 9.98376C147.697 9.51286 147.33 8.96613 147.059 8.34358C146.788 7.71305 146.652 7.04261 146.652 6.33226Z" fill="white"/>
<path d="M175.519 18.3523H163.75V1.18425H175.519V4.62025H167.186V8.05625H172.825V11.4922H167.186V14.9163H175.519V18.3523Z" fill="white"/>
</svg>
