<svg width="89" height="10" viewBox="0 0 89 10" fill="none" xmlns="http://www.w3.org/2000/svg">
<path d="M2.00355 2.36147V5.8307H3.74063C3.97869 5.8307 4.20263 5.78638 4.41246 5.69774C4.62228 5.60506 4.80587 5.48015 4.96323 5.32301C5.1206 5.16587 5.24367 4.98253 5.33244 4.77301C5.42524 4.55946 5.47165 4.33382 5.47165 4.09609C5.47165 3.85836 5.42524 3.63473 5.33244 3.42521C5.24367 3.21166 5.1206 3.02631 4.96323 2.86916C4.80587 2.71202 4.62228 2.58913 4.41246 2.50048C4.20263 2.40781 3.97869 2.36147 3.74063 2.36147H2.00355ZM2.00355 9.29389H0.266479V0.626858H3.74063C4.05939 0.626858 4.36605 0.669165 4.66061 0.753781C4.95516 0.834367 5.22955 0.951216 5.48375 1.10433C5.74199 1.25341 5.97602 1.43473 6.18584 1.64829C6.3997 1.85781 6.58127 2.09151 6.73057 2.34938C6.8839 2.60726 7.00092 2.88327 7.08162 3.17741C7.16635 3.47155 7.20872 3.77777 7.20872 4.09609C7.20872 4.57155 7.11793 5.02081 6.93636 5.44389C6.75478 5.86294 6.50663 6.2296 6.1919 6.54389C5.87716 6.85818 5.50796 7.10598 5.08428 7.2873C4.66464 7.46862 4.21676 7.55927 3.74063 7.55927H2.00355V9.29389Z" fill="white"/>
<path d="M17.2932 4.99664C17.2932 5.40763 17.2387 5.80451 17.1298 6.1873C17.0249 6.56605 16.8756 6.92264 16.6819 7.25708C16.4882 7.58748 16.2542 7.88968 15.9798 8.16367C15.7054 8.43766 15.4028 8.67338 15.0719 8.87081C14.741 9.06422 14.3839 9.2133 14.0006 9.31806C13.6173 9.42686 13.2198 9.48125 12.8083 9.48125C12.3967 9.48125 11.9992 9.42686 11.6159 9.31806C11.2366 9.2133 10.8795 9.06422 10.5446 8.87081C10.2138 8.67338 9.91113 8.43766 9.63675 8.16367C9.36237 7.88968 9.12632 7.58748 8.9286 7.25708C8.73492 6.92264 8.58361 6.56605 8.47466 6.1873C8.36975 5.80451 8.3173 5.40763 8.3173 4.99664C8.3173 4.58565 8.36975 4.18876 8.47466 3.80598C8.58361 3.42319 8.73492 3.0666 8.9286 2.7362C9.12632 2.40579 9.36237 2.1036 9.63675 1.8296C9.91113 1.55561 10.2138 1.32191 10.5446 1.12851C10.8795 0.935099 11.2366 0.786015 11.6159 0.681253C11.9992 0.572462 12.3967 0.518066 12.8083 0.518066C13.2198 0.518066 13.6173 0.572462 14.0006 0.681253C14.3839 0.786015 14.741 0.935099 15.0719 1.12851C15.4028 1.32191 15.7054 1.55561 15.9798 1.8296C16.2542 2.1036 16.4882 2.40579 16.6819 2.7362C16.8756 3.0666 17.0249 3.42319 17.1298 3.80598C17.2387 4.18876 17.2932 4.58565 17.2932 4.99664ZM15.5682 4.99664C15.5682 4.61788 15.4956 4.26129 15.3503 3.92686C15.2051 3.5884 15.0073 3.29627 14.7572 3.05048C14.511 2.80067 14.2185 2.60323 13.8796 2.45818C13.5447 2.31312 13.1876 2.24059 12.8083 2.24059C12.4249 2.24059 12.0658 2.31312 11.7309 2.45818C11.396 2.60323 11.1035 2.80067 10.8533 3.05048C10.6031 3.29627 10.4054 3.5884 10.2602 3.92686C10.1149 4.26129 10.0423 4.61788 10.0423 4.99664C10.0423 5.37539 10.1149 5.73198 10.2602 6.06642C10.4054 6.39682 10.6031 6.68693 10.8533 6.93675C11.1035 7.18656 11.396 7.384 11.7309 7.52905C12.0658 7.67411 12.4249 7.74664 12.8083 7.74664C13.1876 7.74664 13.5447 7.67411 13.8796 7.52905C14.2185 7.384 14.511 7.18656 14.7572 6.93675C15.0073 6.68693 15.2051 6.39682 15.3503 6.06642C15.4956 5.73198 15.5682 5.37539 15.5682 4.99664Z" fill="white"/>
<path d="M20.732 2.36147V5.8307H22.4691C22.7071 5.8307 22.9311 5.78638 23.1409 5.69774C23.3507 5.60506 23.5343 5.48015 23.6917 5.32301C23.849 5.16587 23.9721 4.98253 24.0609 4.77301C24.1537 4.55946 24.2001 4.33382 24.2001 4.09609C24.2001 3.85836 24.1537 3.63473 24.0609 3.42521C23.9721 3.21166 23.849 3.02631 23.6917 2.86916C23.5343 2.71202 23.3507 2.58913 23.1409 2.50048C22.9311 2.40781 22.7071 2.36147 22.4691 2.36147H20.732ZM20.732 9.29389H18.9949V0.626858H22.4691C22.7878 0.626858 23.0945 0.669165 23.389 0.753781C23.6836 0.834367 23.958 0.951216 24.2122 1.10433C24.4704 1.25341 24.7045 1.43473 24.9143 1.64829C25.1281 1.85781 25.3097 2.09151 25.459 2.34938C25.6123 2.60726 25.7293 2.88327 25.81 3.17741C25.8948 3.47155 25.9372 3.77777 25.9372 4.09609C25.9372 4.39426 25.8988 4.68437 25.8222 4.96642C25.7495 5.24847 25.6426 5.51642 25.5014 5.77026C25.3642 6.02411 25.1947 6.25781 24.993 6.47136C24.7912 6.68492 24.5652 6.87026 24.3151 7.02741L25.2774 9.29389H23.4314L22.6748 7.54719L20.732 7.55927V9.29389Z" fill="white"/>
<path d="M31.1251 9.29389H29.3941V2.36147H26.7855V0.626858H33.7277V2.36147H31.1251V9.29389Z" fill="white"/>
<path d="M40.0475 5.8307V4.09609C40.0475 3.85836 40.0011 3.63473 39.9083 3.42521C39.8195 3.21166 39.6965 3.02631 39.5391 2.86916C39.3817 2.71202 39.1961 2.58913 38.9823 2.50048C38.7724 2.40781 38.5485 2.36147 38.3104 2.36147C38.0724 2.36147 37.8464 2.40781 37.6326 2.50048C37.4227 2.58913 37.2391 2.71202 37.0818 2.86916C36.9244 3.02631 36.7993 3.21166 36.7065 3.42521C36.6177 3.63473 36.5734 3.85836 36.5734 4.09609V5.8307H40.0475ZM41.7846 9.29389H40.0475V7.55927H36.5734V9.29389H34.8423V4.09609C34.8423 3.6166 34.9331 3.16733 35.1147 2.74829C35.2963 2.32521 35.5424 1.95653 35.8531 1.64224C36.1678 1.32796 36.535 1.08015 36.9547 0.898836C37.3783 0.717517 37.8303 0.626858 38.3104 0.626858C38.7906 0.626858 39.2405 0.717517 39.6601 0.898836C40.0838 1.08015 40.453 1.32796 40.7678 1.64224C41.0825 1.95653 41.3306 2.32521 41.5122 2.74829C41.6938 3.16733 41.7846 3.6166 41.7846 4.09609V9.29389Z" fill="white"/>
<path d="M49.9262 9.29389H43.8495V0.626858H45.5865V7.55927H49.9262V9.29389Z" fill="white"/>
<path d="M57.1539 0.626858L54.3031 9.29389H52.5661L49.7274 0.626858H51.7005L53.4316 6.41092L55.1686 0.626858H57.1539Z" fill="white"/>
<path d="M64.4965 9.29389H58.5469V0.626858H64.4965V2.36147H60.284V4.09609H63.1347V5.8307H60.284V7.55927H64.4965V9.29389Z" fill="white"/>
<path d="M68.008 2.36147V5.8307H69.745C69.9831 5.8307 70.207 5.78638 70.4169 5.69774C70.6267 5.60506 70.8103 5.48015 70.9676 5.32301C71.125 5.16587 71.2481 4.98253 71.3369 4.77301C71.4297 4.55946 71.4761 4.33382 71.4761 4.09609C71.4761 3.85836 71.4297 3.63473 71.3369 3.42521C71.2481 3.21166 71.125 3.02631 70.9676 2.86916C70.8103 2.71202 70.6267 2.58913 70.4169 2.50048C70.207 2.40781 69.9831 2.36147 69.745 2.36147H68.008ZM68.008 9.29389H66.2709V0.626858H69.745C70.0638 0.626858 70.3705 0.669165 70.665 0.753781C70.9596 0.834367 71.234 0.951216 71.4882 1.10433C71.7464 1.25341 71.9804 1.43473 72.1903 1.64829C72.4041 1.85781 72.5857 2.09151 72.735 2.34938C72.8883 2.60726 73.0053 2.88327 73.086 3.17741C73.1708 3.47155 73.2131 3.77777 73.2131 4.09609C73.2131 4.39426 73.1748 4.68437 73.0981 4.96642C73.0255 5.24847 72.9186 5.51642 72.7774 5.77026C72.6402 6.02411 72.4707 6.25781 72.2689 6.47136C72.0672 6.68492 71.8412 6.87026 71.5911 7.02741L72.5534 9.29389H70.7074L69.9508 7.54719L68.008 7.55927V9.29389Z" fill="white"/>
<path d="M74.4064 3.22576C74.4064 2.86715 74.475 2.5307 74.6122 2.21642C74.7494 1.90213 74.935 1.62814 75.1691 1.39444C75.4071 1.15671 75.6835 0.969348 75.9983 0.832352C76.313 0.695356 76.6499 0.626858 77.009 0.626858H80.9916V2.36147H77.009C76.888 2.36147 76.775 2.38363 76.6701 2.42796C76.5652 2.47228 76.4724 2.53473 76.3917 2.61532C76.315 2.69188 76.2545 2.78254 76.2101 2.8873C76.1657 2.99206 76.1435 3.10488 76.1435 3.22576C76.1435 3.34664 76.1657 3.46147 76.2101 3.57026C76.2545 3.67503 76.315 3.7677 76.3917 3.84829C76.4724 3.92484 76.5652 3.98528 76.6701 4.0296C76.775 4.07393 76.888 4.09609 77.009 4.09609H78.7461C79.1052 4.09609 79.4421 4.16459 79.7569 4.30158C80.0756 4.43455 80.352 4.6199 80.5861 4.85763C80.8241 5.09133 81.0097 5.36733 81.1429 5.68565C81.2801 5.99993 81.3487 6.33638 81.3487 6.69499C81.3487 7.0536 81.2801 7.39004 81.1429 7.70433C81.0097 8.01861 80.8241 8.29462 80.5861 8.53235C80.352 8.76605 80.0756 8.9514 79.7569 9.08839C79.4421 9.22539 79.1052 9.29389 78.7461 9.29389H74.8906V7.55927H78.7461C78.8672 7.55927 78.9801 7.53711 79.0851 7.49279C79.19 7.44847 79.2807 7.38803 79.3574 7.31147C79.4381 7.23089 79.5007 7.13821 79.545 7.03345C79.5894 6.92869 79.6116 6.81587 79.6116 6.69499C79.6116 6.57411 79.5894 6.46129 79.545 6.35653C79.5007 6.25176 79.4381 6.16111 79.3574 6.08455C79.2807 6.00396 79.19 5.94151 79.0851 5.89719C78.9801 5.85286 78.8672 5.8307 78.7461 5.8307H77.009C76.6499 5.8307 76.313 5.7622 75.9983 5.62521C75.6835 5.48821 75.4071 5.30286 75.1691 5.06916C74.935 4.83144 74.7494 4.55543 74.6122 4.24114C74.475 3.92283 74.4064 3.58437 74.4064 3.22576Z" fill="white"/>
<path d="M89 9.29389H83.0504V0.626858H89V2.36147H84.7875V4.09609H87.6382V5.8307H84.7875V7.55927H89V9.29389Z" fill="white"/>
</svg>
