<svg width="500" height="500" viewBox="0 0 500 500" fill="none" xmlns="http://www.w3.org/2000/svg">
<path fill-rule="evenodd" clip-rule="evenodd" d="M250 0C388.071 0 500 111.929 500 250C500 309.976 478.88 365.019 443.672 408.098C443.42 408.407 443.166 408.715 442.912 409.023C431.778 422.515 419.256 434.818 405.565 445.715C362.871 479.696 308.806 500 250 500C191.482 500 137.659 479.894 95.0637 446.214C81.0847 435.16 68.3148 422.645 56.9851 408.899C21.3827 365.702 0 310.348 0 250C0 111.929 111.929 0 250 0ZM147.214 381.36C175.54 403.555 211.225 416.787 250 416.787C289.142 416.787 325.134 403.304 353.587 380.729L250.662 252.045L147.214 381.36ZM389.891 340.857L250.666 166.787L110.698 341.755C93.3251 315.433 83.2127 283.898 83.2127 250C83.2127 157.886 157.886 83.2127 250 83.2127C342.114 83.2127 416.787 157.886 416.787 250C416.787 283.513 406.903 314.717 389.891 340.857Z" fill="white"/>
</svg>
