<svg width="134" height="134" viewBox="0 0 134 134" fill="none" xmlns="http://www.w3.org/2000/svg">
<circle cx="67" cy="67" r="66" fill="#100C29" stroke="url(#paint0_linear_2687_2197)" stroke-width="2"/>
<g filter="url(#filter0_f_2687_2197)">
<path d="M63.2668 48.7376C66.3043 43.4764 73.0318 41.6738 78.293 44.7114L81.293 39.5152C73.1621 34.8208 62.765 37.6066 58.0706 45.7376L63.2668 48.7376ZM61.0961 52.4974L63.2668 48.7376L58.0706 45.7376L55.8999 49.4974L61.0961 52.4974ZM65.1223 67.5237C59.8611 64.4861 58.0585 57.7586 61.0961 52.4974L55.8999 49.4974C51.2055 57.6284 53.9914 68.0254 62.1223 72.7198L65.1223 67.5237ZM67.1474 68.6928L65.1223 67.5237L62.1223 72.7198L64.1474 73.889L67.1474 68.6928ZM55.3043 96.1889L68.3888 73.5258L63.1927 70.5258L50.1081 93.1889L55.3043 96.1889ZM56.2595 99.7538C55.0113 99.0331 54.5836 97.4371 55.3043 96.1889L50.1081 93.1889C47.7306 97.3068 49.1415 102.572 53.2595 104.95L56.2595 99.7538ZM59.8244 98.7986C59.1038 100.047 57.5077 100.474 56.2595 99.7538L53.2595 104.95C57.3775 107.327 62.6431 105.917 65.0206 101.799L59.8244 98.7986ZM72.909 76.1355L59.8244 98.7986L65.0206 101.799L78.1051 79.1355L72.909 76.1355ZM79.7389 75.9625L77.7152 74.7941L74.7152 79.9903L76.7389 81.1587L79.7389 75.9625ZM94.7652 71.9363C91.7276 77.1975 85.0001 79.0001 79.7389 75.9625L76.7389 81.1587C84.8699 85.8531 95.2669 83.0673 99.9613 74.9363L94.7652 71.9363ZM96.9359 68.1765L94.7652 71.9363L99.9613 74.9363L102.132 71.1765L96.9359 68.1765ZM92.9096 53.1502C98.1708 56.1878 99.9734 62.9153 96.9359 68.1765L102.132 71.1765C106.826 63.0455 104.041 52.6485 95.9096 47.9541L92.9096 53.1502ZM78.293 44.7114L92.9096 53.1502L95.9096 47.9541L81.293 39.5152L78.293 44.7114ZM78.1051 79.1355C77.8314 79.6096 77.4011 79.9805 76.8687 80.1788C76.3092 80.3871 75.4952 80.4407 74.7152 79.9903L77.7152 74.7941C75.5915 73.5681 73.6004 74.9379 72.909 76.1355L78.1051 79.1355ZM64.1474 73.889C63.3674 73.4386 63.0067 72.7069 62.9074 72.1182C62.8129 71.558 62.9189 70.9999 63.1927 70.5258L68.3888 73.5258C69.0802 72.3282 69.271 69.9189 67.1474 68.6928L64.1474 73.889Z" fill="url(#paint1_linear_2687_2197)"/>
</g>
<mask id="path-3-inside-1_2687_2197" fill="white">
<path fill-rule="evenodd" clip-rule="evenodd" d="M78.7852 40.2695C72.0891 36.4035 63.5269 38.6978 59.6609 45.3939L56.8789 50.2125C53.0129 56.9086 55.3071 65.4708 62.0032 69.3368L64.9918 71.0623C65.2174 71.1926 65.2568 71.5031 65.1265 71.7288L51.5821 95.1884C49.9343 98.0423 50.9122 101.692 53.7661 103.339C56.6201 104.987 60.2694 104.009 61.9171 101.155L75.4615 77.6957C75.5918 77.4701 75.8804 77.3488 76.1061 77.4791L79.0947 79.2046C85.7908 83.0706 94.353 80.7763 98.219 74.0802L101.001 69.2616C104.867 62.5655 102.573 54.0033 95.8767 50.1373L78.7852 40.2695Z"/>
</mask>
<path d="M59.6609 45.3939L57.9288 44.3939L59.6609 45.3939ZM56.8789 50.2125L58.6109 51.2125L56.8789 50.2125ZM62.0032 69.3368L63.0032 67.6048L62.0032 69.3368ZM51.5821 95.1884L53.3141 96.1884L51.5821 95.1884ZM98.219 74.0802L99.9511 75.0802L98.219 74.0802ZM101.001 69.2616L99.269 68.2616L101.001 69.2616ZM64.9918 71.0623L63.9918 72.7943L64.9918 71.0623ZM61.3929 46.3939C64.7066 40.6544 72.0457 38.6879 77.7852 42.0016L79.7852 38.5375C72.1325 34.1192 62.3471 36.7412 57.9288 44.3939L61.3929 46.3939ZM58.6109 51.2125L61.3929 46.3939L57.9288 44.3939L55.1468 49.2125L58.6109 51.2125ZM63.0032 67.6048C57.2637 64.2911 55.2972 56.952 58.6109 51.2125L55.1468 49.2125C50.7285 56.8652 53.3505 66.6506 61.0032 71.0689L63.0032 67.6048ZM65.9918 69.3302L63.0032 67.6048L61.0032 71.0689L63.9918 72.7943L65.9918 69.3302ZM53.3141 96.1884L66.8585 72.7288L63.3944 70.7288L49.85 94.1884L53.3141 96.1884ZM54.7661 101.607C52.8688 100.512 52.2187 98.0858 53.3141 96.1884L49.85 94.1884C47.65 97.9989 48.9556 102.871 52.7661 105.071L54.7661 101.607ZM60.185 100.155C59.0896 102.053 56.6635 102.703 54.7661 101.607L52.7661 105.071C56.5766 107.271 61.4491 105.966 63.6491 102.155L60.185 100.155ZM73.7295 76.6957L60.185 100.155L63.6491 102.155L77.1936 78.6957L73.7295 76.6957ZM80.0947 77.4725L77.1061 75.7471L75.1061 79.2112L78.0947 80.9366L80.0947 77.4725ZM96.487 73.0802C93.1733 78.8197 85.8342 80.7862 80.0947 77.4725L78.0947 80.9366C85.7473 85.3549 95.5328 82.7329 99.9511 75.0802L96.487 73.0802ZM99.269 68.2616L96.487 73.0802L99.9511 75.0802L102.733 70.2616L99.269 68.2616ZM94.8767 51.8693C100.616 55.183 102.583 62.5221 99.269 68.2616L102.733 70.2616C107.151 62.609 104.529 52.8235 96.8767 48.4052L94.8767 51.8693ZM77.7852 42.0016L94.8767 51.8693L96.8767 48.4052L79.7852 38.5375L77.7852 42.0016ZM77.1936 78.6957C77.0247 78.9882 76.7586 79.2151 76.4288 79.3345C76.0816 79.4602 75.5823 79.4861 75.1061 79.2112L77.1061 75.7471C75.6567 74.9103 74.244 75.8044 73.7295 76.6957L77.1936 78.6957ZM63.9918 72.7943C63.5155 72.5194 63.2883 72.074 63.2236 71.7105C63.1621 71.3652 63.2256 71.0213 63.3944 70.7288L66.8585 72.7288C67.3731 71.8375 67.4411 70.167 65.9918 69.3302L63.9918 72.7943Z" fill="url(#paint2_linear_2687_2197)" mask="url(#path-3-inside-1_2687_2197)"/>
<g filter="url(#filter1_bii_2687_2197)">
<path fill-rule="evenodd" clip-rule="evenodd" d="M69.3614 26C62.6653 22.134 54.103 24.4283 50.237 31.1244L45.1183 39.9903C41.2523 46.6863 43.5466 55.2486 50.2427 59.1146L55.5383 62.172C55.6754 62.2512 55.7088 62.4337 55.6296 62.5709L40.0601 89.5381C38.1829 92.7895 39.2969 96.9469 42.5482 98.8241C45.7995 100.701 49.957 99.5872 51.8341 96.3359L67.4037 69.3686C67.4829 69.2315 67.6576 69.1691 67.7948 69.2483L73.0903 72.3057C79.7864 76.1717 88.3487 73.8774 92.2146 67.1813L97.3334 58.3154C101.199 51.6193 98.9051 43.0571 92.209 39.1911L69.3614 26Z" fill="url(#paint3_linear_2687_2197)" fill-opacity="0.4"/>
</g>
<defs>
<filter id="filter0_f_2687_2197" x="35.9532" y="24.2347" width="81.4592" height="94.8701" filterUnits="userSpaceOnUse" color-interpolation-filters="sRGB">
<feFlood flood-opacity="0" result="BackgroundImageFix"/>
<feBlend mode="normal" in="SourceGraphic" in2="BackgroundImageFix" result="shape"/>
<feGaussianBlur stdDeviation="6.5" result="effect1_foregroundBlur_2687_2197"/>
</filter>
<filter id="filter1_bii_2687_2197" x="31.1482" y="16.1221" width="76.0632" height="91.6139" filterUnits="userSpaceOnUse" color-interpolation-filters="sRGB">
<feFlood flood-opacity="0" result="BackgroundImageFix"/>
<feGaussianBlur in="BackgroundImageFix" stdDeviation="4"/>
<feComposite in2="SourceAlpha" operator="in" result="effect1_backgroundBlur_2687_2197"/>
<feBlend mode="normal" in="SourceGraphic" in2="effect1_backgroundBlur_2687_2197" result="shape"/>
<feColorMatrix in="SourceAlpha" type="matrix" values="0 0 0 0 0 0 0 0 0 0 0 0 0 0 0 0 0 0 127 0" result="hardAlpha"/>
<feOffset dy="0.5"/>
<feGaussianBlur stdDeviation="3"/>
<feComposite in2="hardAlpha" operator="arithmetic" k2="-1" k3="1"/>
<feColorMatrix type="matrix" values="0 0 0 0 1 0 0 0 0 1 0 0 0 0 1 0 0 0 0.25 0"/>
<feBlend mode="normal" in2="shape" result="effect2_innerShadow_2687_2197"/>
<feColorMatrix in="SourceAlpha" type="matrix" values="0 0 0 0 0 0 0 0 0 0 0 0 0 0 0 0 0 0 127 0" result="hardAlpha"/>
<feOffset dy="0.5"/>
<feGaussianBlur stdDeviation="1"/>
<feComposite in2="hardAlpha" operator="arithmetic" k2="-1" k3="1"/>
<feColorMatrix type="matrix" values="0 0 0 0 1 0 0 0 0 1 0 0 0 0 1 0 0 0 0.7 0"/>
<feBlend mode="normal" in2="effect2_innerShadow_2687_2197" result="effect3_innerShadow_2687_2197"/>
</filter>
<linearGradient id="paint0_linear_2687_2197" x1="4.18735" y1="50.2504" x2="125.625" y2="92.1259" gradientUnits="userSpaceOnUse">
<stop stop-color="#75DAF3"/>
<stop offset="0.528646" stop-color="#4553F2"/>
<stop offset="0.970271" stop-color="#7623F5"/>
</linearGradient>
<linearGradient id="paint1_linear_2687_2197" x1="56.7547" y1="56.8217" x2="88.8821" y2="87.2611" gradientUnits="userSpaceOnUse">
<stop stop-color="#75DAF3"/>
<stop offset="0.528646" stop-color="#4553F2"/>
<stop offset="0.970271" stop-color="#7623F5"/>
</linearGradient>
<linearGradient id="paint2_linear_2687_2197" x1="80.6064" y1="85.279" x2="59.3097" y2="53.3043" gradientUnits="userSpaceOnUse">
<stop stop-color="#75DAF3"/>
<stop offset="0.528646" stop-color="#4553F2"/>
<stop offset="0.970271" stop-color="#7623F5"/>
</linearGradient>
<linearGradient id="paint3_linear_2687_2197" x1="80.7852" y1="32.5955" x2="42.5482" y2="98.824" gradientUnits="userSpaceOnUse">
<stop stop-color="#5065AE"/>
<stop offset="1" stop-color="#17002D"/>
</linearGradient>
</defs>
</svg>
